<?xml version="1.0" encoding="UTF-8" standalone="no"?>
<svg width="421px" height="130px" viewBox="0 0 421 130" version="1.1" xmlns="http://www.w3.org/2000/svg" xmlns:xlink="http://www.w3.org/1999/xlink">
    <!-- Generator: Sketch 47.1 (45422) - http://www.bohemiancoding.com/sketch -->
    <title>V123 Imagetype </title>
    <desc>Created with Sketch.</desc>
    <defs>
        <polygon id="path-1" points="0 0 122 0 122 130 0 130"></polygon>
        <polygon id="path-3" points="7.68649821e-17 2.60711538 7.68649821e-17 0.385 1.57682692 0.385 1.57682692 2.60711538 0 2.60711538"></polygon>
        <polygon id="path-5" points="0.275735577 20.6730769 38.9813606 20.6730769 38.9813606 0.118086081 0.275735577 0.118086081"></polygon>
    </defs>
    <g id="Page-1" stroke="none" stroke-width="1" fill="none" fill-rule="evenodd">
        <g id="light-background" transform="translate(-65.000000, -71.000000)">
            <g id="V123-Imagetype-" transform="translate(65.000000, 71.000000)">
                <g id="text-VOICE123" transform="translate(137.000000, 41.000000)" fill="#354860">
                    <polygon id="Fill-3" points="34.3385194 1.16875448 22.9357768 31.2944234 22.806885 31.2944234 11.5983171 1.16875448 0.193900568 1.16875448 18.3241274 47.1368234 26.3321604 47.1368234 45.0382156 1.16875448"></polygon>
                    <path d="M51.5716925,31.3599103 C51.5716925,33.7401724 52.2446084,35.6674552 53.59044,37.1383655 C54.9345977,38.6109724 56.8244533,39.3455793 59.2583329,39.3455793 C61.6938864,39.3455793 63.583742,38.6109724 64.9278997,37.1383655 C66.2737313,35.6674552 66.9466471,33.7401724 66.9466471,31.3599103 C66.9466471,28.9796483 66.2737313,27.0523655 64.9278997,25.5814552 C63.583742,24.1105448 61.6938864,23.3742414 59.2583329,23.3742414 C56.8244533,23.3742414 54.9345977,24.1105448 53.59044,25.5814552 C52.2446084,27.0523655 51.5716925,28.9796483 51.5716925,31.3599103 Z M41.9617182,31.3599103 C41.9617182,28.8507103 42.4103287,26.577331 43.3075498,24.541469 C44.2047709,22.509 45.4317542,20.7666414 46.9918476,19.3160897 C48.5502671,17.8655379 50.3865572,16.7509034 52.5007181,15.9721862 C54.614879,15.193469 56.8663013,14.8032621 59.2583329,14.8032621 C61.6503645,14.8032621 63.9034607,15.193469 66.0176216,15.9721862 C68.1317825,16.7509034 69.9680726,17.8655379 71.5264921,19.3160897 C73.0849115,20.7666414 74.3135688,22.509 75.2107899,24.541469 C76.106337,26.577331 76.5549476,28.8507103 76.5549476,31.3599103 C76.5549476,33.8708069 76.106337,36.1424897 75.2107899,38.1766552 C74.3135688,40.2125172 73.0849115,41.9548759 71.5264921,43.403731 C69.9680726,44.8542828 68.1317825,45.9689172 66.0176216,46.7476345 C63.9034607,47.5263517 61.6503645,47.9165586 59.2583329,47.9165586 C56.8663013,47.9165586 54.614879,47.5263517 52.5007181,46.7476345 C50.3865572,45.9689172 48.5502671,44.8542828 46.9918476,43.403731 C45.4317542,41.9548759 44.2047709,40.2125172 43.3075498,38.1766552 C42.4103287,36.1424897 41.9617182,33.8708069 41.9617182,31.3599103 Z" id="Fill-4"></path>
                    <path d="M80.3987699,47.1366538 L90.0087443,47.1366538 L90.0087443,15.5824883 L80.3987699,15.5824883 L80.3987699,47.1366538 Z M79.6287668,5.64917793 C79.6287668,4.0900469 80.1744647,2.75995034 81.2641865,1.65549517 C82.3522345,0.55104 83.6662616,-0.000339310345 85.2029201,-0.000339310345 C86.7412526,-0.000339310345 88.0536058,0.55104 89.1433277,1.65549517 C90.2313756,2.75995034 90.7770735,4.0900469 90.7770735,5.64917793 C90.7770735,7.20661241 90.2313756,8.53840552 89.1433277,9.64116414 C88.0536058,10.7456193 86.7412526,11.2969986 85.2029201,11.2969986 C83.6662616,11.2969986 82.3522345,10.7456193 81.2641865,9.64116414 C80.1744647,8.53840552 79.6287668,7.20661241 79.6287668,5.64917793 L79.6287668,5.64917793 Z" id="Fill-6"></path>
                    <path d="M116.080382,25.7760497 C115.610011,25.0838566 114.948812,24.5104221 114.095113,24.0557462 C113.23974,23.6010703 112.320758,23.3737324 111.339841,23.3737324 C108.905961,23.3737324 107.016106,24.1100359 105.670274,25.5809462 C104.324442,27.0535531 103.6532,28.9791393 103.6532,31.3594014 C103.6532,33.7396634 104.324442,35.6669462 105.670274,37.1378566 C107.016106,38.6104634 108.905961,39.3450703 111.339841,39.3450703 C112.406128,39.3450703 113.32511,39.1092497 114.095113,38.6325186 C114.863442,38.1557876 115.524641,37.5925324 116.080382,36.9427531 L122.422865,43.695029 C120.92638,45.25416 119.165416,46.3467393 117.136626,46.9744634 C115.107835,47.600491 113.176131,47.9160497 111.339841,47.9160497 C108.947809,47.9160497 106.694713,47.5275393 104.582226,46.7471255 C102.466391,45.9684083 100.630101,44.8537738 99.0716816,43.4032221 C97.5132621,41.9543669 96.2846049,40.2120083 95.3890577,38.1778428 C94.4918366,36.1436772 94.0432261,33.8702979 94.0432261,31.3594014 C94.0432261,28.8502014 94.4918366,26.5768221 95.3890577,24.5426566 C96.2846049,22.508491 97.5132621,20.7661324 99.0716816,19.3155807 C100.630101,17.865029 102.466391,16.7503945 104.582226,15.9716772 C106.694713,15.19296 108.947809,14.8027531 111.339841,14.8027531 C113.176131,14.8027531 115.107835,15.1183117 117.136626,15.7443393 C119.165416,16.3720634 120.92638,17.4646428 122.422865,19.0237738 L116.080382,25.7760497 Z" id="Fill-8"></path>
                    <path d="M145.292126,27.7890083 C145.333974,26.1450497 144.799994,24.7369117 143.690185,23.5679876 C142.578702,22.3990634 141.149174,21.8154497 139.398254,21.8154497 C138.330293,21.8154497 137.38955,21.9884979 136.579373,22.3345945 C135.767522,22.6823876 135.074519,23.1251876 134.497017,23.6663876 C133.921188,24.2075876 133.472578,24.8353117 133.152859,25.54956 C132.831466,26.2621117 132.649009,27.0085945 132.607161,27.7890083 L145.292126,27.7890083 Z M153.427377,41.6837669 C151.890719,43.6738221 149.945624,45.2108979 147.598788,46.2932979 C145.248604,47.3740014 142.814725,47.9168979 140.295475,47.9168979 C137.903444,47.9168979 135.650347,47.526691 133.536187,46.7479738 C131.422026,45.9692566 129.585735,44.8546221 128.027316,43.4040703 C126.468897,41.9535186 125.240239,40.2128566 124.343018,38.1769945 C123.447471,36.142829 122.998861,33.8711462 122.998861,31.3602497 C122.998861,28.8493531 123.447471,26.5776703 124.343018,24.5418083 C125.240239,22.5093393 126.468897,20.7669807 128.027316,19.316429 C129.585735,17.8658772 131.422026,16.7512428 133.536187,15.9725255 C135.650347,15.1921117 137.903444,14.8036014 140.295475,14.8036014 C142.515093,14.8036014 144.533841,15.1921117 146.34837,15.9725255 C148.164573,16.7512428 149.701231,17.8658772 150.961693,19.316429 C152.220481,20.7669807 153.193028,22.5093393 153.875988,24.5418083 C154.558947,26.5776703 154.900427,28.8493531 154.900427,31.3602497 L154.900427,34.4106497 L132.607161,34.4106497 C132.992163,36.2717669 133.824101,37.7545531 135.106323,38.8590083 C136.386872,39.9634634 137.967053,40.5148428 139.846865,40.5148428 C141.427045,40.5148428 142.761159,40.1568703 143.850881,39.4443186 C144.938929,38.7283738 145.889716,37.8088428 146.701567,36.684029 L153.427377,41.6837669 Z" id="Fill-9"></path>
                    <polygon id="Fill-10" points="173.862759 12.0765641 164.765004 20.1928676 159.319743 13.8291021 174.118869 1.1694331 183.087732 1.1694331 183.087732 47.1375021 173.862759 47.1375021"></polygon>
                    <path d="M194.553749,36.8138152 L212.171756,20.7763117 C213.067303,19.9551807 213.964524,19.0237738 214.861745,17.9854841 C215.758966,16.9454979 216.207577,15.73416 216.207577,14.3480772 C216.207577,12.7906428 215.651835,11.567429 214.540353,10.6801324 C213.430544,9.79283586 212.128234,9.35003586 210.633424,9.35003586 C208.838981,9.35003586 207.441258,9.91329103 206.436906,11.0381048 C205.434228,12.1629186 204.868443,13.5490014 204.739551,15.19296 L195.131251,14.4787117 C195.258469,12.0984497 195.748927,10.0303531 196.604301,8.27781517 C197.458,6.52527724 198.58957,5.06454621 199.99901,3.89562207 C201.408451,2.72669793 203.062284,1.84958069 204.963857,1.2659669 C206.863756,0.680656552 208.924351,0.388849655 211.145643,0.388849655 C213.196195,0.388849655 215.117855,0.680656552 216.910623,1.2659669 C218.705065,1.84958069 220.263485,2.71651862 221.587556,3.86338759 C222.911626,5.01025655 223.946109,6.45062897 224.696025,8.18111172 C225.440919,9.91329103 225.815877,11.9254014 225.815877,14.2191393 C225.815877,15.6917462 225.665225,17.0218428 225.367267,18.2111255 C225.067635,19.4038014 224.652503,20.4845048 224.118523,21.4583255 C223.582868,22.4321462 222.955148,23.3313186 222.228667,24.1524497 C221.502186,24.9752772 220.712095,25.7760497 219.858396,26.5547669 L206.085383,38.5663531 L226.199205,38.5663531 L226.199205,47.1373324 L194.553749,47.1373324 L194.553749,36.8138152 Z" id="Fill-11"></path>
                    <path d="M241.254943,19.2833462 L244.393543,19.2833462 C245.290764,19.2833462 246.16455,19.2188772 247.019923,19.0882428 C247.873623,18.9593048 248.653669,18.7099117 249.358389,18.34176 C250.06311,17.9753048 250.628895,17.4544634 251.055744,16.7843255 C251.482594,16.112491 251.696856,15.2370703 251.696856,14.1546703 C251.696856,12.7685876 251.152832,11.6217186 250.06311,10.7123669 C248.973388,9.80471172 247.639274,9.35003586 246.059093,9.35003586 C244.564283,9.35003586 243.325582,9.76229793 242.342991,10.583429 C241.3604,11.4062566 240.719289,12.422491 240.421331,13.633829 L229.8522,11.4266152 C230.36442,9.43656 231.132749,7.73831172 232.157188,6.33017379 C233.183301,4.92373241 234.400241,3.78873931 235.808008,2.92180138 C237.219122,2.05656 238.787585,1.41865655 240.518418,1.00639448 C242.247578,0.595828966 244.07215,0.388849655 245.995484,0.388849655 C248.002514,0.388849655 249.934218,0.638242759 251.792269,1.13533241 C253.65032,1.63411862 255.284066,2.41283586 256.693507,3.47318069 C258.102947,4.53522207 259.2228,5.86531862 260.056412,7.46686345 C260.890024,9.06840828 261.305156,10.9719393 261.305156,13.1808497 C261.305156,15.73416 260.642284,17.9193186 259.319887,19.7380221 C257.995816,21.555029 256.074156,22.7239531 253.554907,23.2430979 L253.554907,23.4382014 C254.920825,23.6129462 256.126048,24.0235117 257.173922,24.6715945 C258.220122,25.3213738 259.105625,26.1221462 259.832107,27.0739117 C260.558588,28.0273738 261.114329,29.1097738 261.497657,30.3211117 C261.880985,31.5341462 262.075159,32.8099531 262.075159,34.1519255 C262.075159,36.44736 261.636592,38.4594703 260.761132,40.1899531 C259.885672,41.9221324 258.71058,43.3608083 257.237531,44.5076772 C255.764481,45.6545462 254.033648,46.5096083 252.048379,47.0728634 C250.06311,47.6344221 247.958992,47.9160497 245.739375,47.9160497 C241.680119,47.9160497 238.189996,46.9642841 235.265658,45.0590566 C232.339646,43.1555255 230.406268,40.1475393 229.467199,36.0350979 L239.589393,33.6327807 C239.930872,35.2767393 240.623875,36.5762979 241.671749,37.5280634 C242.716275,38.479829 244.266325,38.95656 246.315203,38.95656 C248.407603,38.95656 249.955979,38.4051807 250.958657,37.3007255 C251.963009,36.1962703 252.465185,34.7796497 252.465185,33.0491669 C252.465185,31.7496083 252.197358,30.7435531 251.665051,30.0293048 C251.129397,29.3150566 250.436394,28.7857324 249.582695,28.4379393 C248.727322,28.0918428 247.766492,27.88656 246.700205,27.8203945 C245.63057,27.7559255 244.564283,27.723691 243.496322,27.723691 L241.254943,27.723691 L241.254943,19.2833462 Z" id="Fill-12"></path>
                </g>
                <g id="text-TM" transform="translate(403.000000, 41.000000)" fill="#354860">
                    <polygon id="Fill-1" points="0 0 0 1.46502332 3.13661202 1.46502332 3.13661202 9 4.86557377 9 4.86557377 1.46502332 8 1.46502332 8 0"></polygon>
                    <polygon id="Fill-2" points="16.2874576 0 13.5010169 4.25316456 10.7145763 0 9 0 9 9 10.5844068 9 10.5844068 2.57028648 13.4481356 6.78747502 13.5010169 6.78747502 16.3911864 2.5443038 16.3911864 9 18 9 18 0"></polygon>
                </g>
                <g id="icon">
                    <g id="Page-1">
                        <mask id="mask-2" fill="white">
                            <use xlink:href="#path-1"></use>
                        </mask>
                        <g id="Clip-2"></g>
                        <path d="M61,130 C57.6588916,130 54.3207556,129.15307 51.2749172,127.459211 L10.2749984,104.651542 C3.9375934,101.125144 0,94.4309322 0,87.180025 L0,42.8217085 C0,35.5698107 3.9375934,28.8746083 10.2759892,25.3492014 L51.2749172,2.54153213 C57.3656033,-0.847177377 64.6343967,-0.847177377 70.7250828,2.54153213 L70.7260737,2.54153213 L111.725992,25.3492014 C118.062407,28.8755989 122,35.5698107 122,42.8217085 L122,87.180025 C122,94.4309322 118.063397,101.125144 111.725992,104.651542 L70.7260737,127.459211 C67.6802352,129.15307 64.3401176,130 61,130" id="Fill-1" fill="#2C95DC" mask="url(#mask-2)"></path>
                    </g>
                    <g id="mic-svg" transform="translate(41.000000, 28.000000)">
                        <g>
                            <path d="M39.9038462,38.9423077 C37.7939043,42.4729109 31.0435094,44.9195658 20.1573447,44.9195658 C9.27118,44.9195658 4.23447934,42.8338928 0.480769231,38.9423077 L0.480769231,49.8279165 C0.480769231,53.9240581 9.30664972,57.6923077 20.1928144,57.6923077 C31.0789791,57.6923077 39.9038462,53.9240581 39.9038462,49.8279165 L39.9038462,38.9423077 Z" id="Fill-1" fill="#FFFFFF"></path>
                            <path d="M26.4423077,15.8573214 C27.1103182,16.4943154 27.7772565,17.1373569 28.4409781,17.7884615 C29.0553763,17.3268424 29.6719189,16.8732866 30.2884615,16.4237623 C29.629029,15.7504838 28.9663797,15.0852685 28.3005136,14.4230769 C27.6807542,14.8967908 27.0609948,15.3725206 26.4423077,15.8573214" id="Fill-3" fill="#FFFFFF"></path>
                            <path d="M38.2292893,33.2328693 C37.9861929,33.3981489 37.7430964,33.5721786 37.5,33.7394027 C38.0026576,34.3470483 38.5014411,34.9614996 39.0011932,35.5769231 C39.4321809,35.0013611 39.7382306,34.40441 39.9038462,33.7967644 C39.6152297,33.4282881 39.3285502,33.0578673 39.0379967,32.6923077 C38.7687504,32.873143 38.4995041,33.0491172 38.2292893,33.2328693" id="Fill-5" fill="#FFFFFF"></path>
                            <path d="M27.8846154,41.0753846 C28.0126154,41.0523846 28.1436154,41.0313846 28.2706154,41.0063846 C28.2266154,40.9603846 28.1826154,40.9123846 28.1386154,40.8653846 C28.0546154,40.9343846 27.9696154,41.0063846 27.8846154,41.0753846" id="Fill-7" fill="#FFFFFF"></path>
                            <path d="M29.3269231,39.7511758 C29.5312215,39.9607419 29.7335649,40.174101 29.9368858,40.3846154 C30.7364844,40.1968594 31.4950278,39.9853968 32.2115385,39.7540206 C31.8146717,39.3216128 31.4197599,38.8882567 31.0199606,38.4615385 C30.4549631,38.8863602 29.8909431,39.314975 29.3269231,39.7511758" id="Fill-9" fill="#FFFFFF"></path>
                            <path d="M32.2115385,37.7653755 C32.709498,38.3124072 33.2015877,38.8682305 33.6946556,39.4230769 C34.3696892,39.1515148 34.9977639,38.8604157 35.5769231,38.5507567 C35.0036337,37.8747818 34.4283877,37.2036912 33.8492285,36.5384615 C33.3033318,36.9418974 32.7564568,37.3511944 32.2115385,37.7653755" id="Fill-11" fill="#FFFFFF"></path>
                            <path d="M35.0961538,35.7948371 C35.7127432,36.5170747 36.3263491,37.2463931 36.935977,37.9807692 C37.5098029,37.5973966 38.0209754,37.1948047 38.4615385,36.7760283 C37.88274,36.0507561 37.3019526,35.3285184 36.7171872,34.6153846 C36.1761798,35.0017919 35.6361668,35.397303 35.0961538,35.7948371" id="Fill-13" fill="#FFFFFF"></path>
                            <path d="M21.6346154,18.0667491 C20.995345,17.4872327 20.3539683,16.911706 19.7115385,16.3461538 C19.0680554,16.911706 18.4277319,17.4872327 17.7884615,18.0667491 C18.4319446,18.6083626 19.0722681,19.1589531 19.7115385,19.7115385 C20.3497557,19.1589531 20.9900792,18.6083626 21.6346154,18.0667491" id="Fill-15" fill="#FFFFFF"></path>
                            <path d="M26.5175864,19.4127325 C26.8122945,19.1827932 27.1091381,18.9619303 27.4038462,18.7350165 C26.750363,18.0915896 26.0936766,17.4572393 25.4348546,16.8269231 C25.1070452,17.0901432 24.7771003,17.3483207 24.4503588,17.6155748 C24.1513796,17.8586247 23.8556037,18.1087342 23.5576923,18.3548097 C24.2186499,18.9619303 24.8764041,19.573085 25.5330906,20.1923077 C25.8608999,19.9331216 26.1876415,19.6688931 26.5175864,19.4127325" id="Fill-17" fill="#FFFFFF"></path>
                            <path d="M27.4038462,24.0238711 C26.7516861,23.3810336 26.0963447,22.7452052 25.4388825,22.1153846 C24.8089913,22.6200421 24.1833418,23.13271 23.5576923,23.6473806 C24.2204566,24.2531698 24.8800397,24.8639656 25.5364414,25.4807692 C26.1578493,24.9891287 26.7803175,24.5024947 27.4038462,24.0238711" id="Fill-19" fill="#FFFFFF"></path>
                            <path d="M32.6923077,19.4017763 C32.1084587,18.6973935 31.5217801,17.999031 30.9322719,17.3076923 C30.3965268,17.7481824 29.8617249,18.1926861 29.3269231,18.645217 C29.9211474,19.314481 30.5134853,19.9907688 31.1029935,20.6730769 C31.6321361,20.2426208 32.1622219,19.8201917 32.6923077,19.4017763" id="Fill-21" fill="#FFFFFF"></path>
                            <path d="M30.2884615,21.7139072 C29.6274373,21.0404288 28.9631991,20.3719688 28.2957467,19.7115385 C27.9721984,19.9574434 27.6486501,20.1983299 27.3261731,20.4472459 C27.0294086,20.676088 26.7369295,20.9109523 26.4423077,21.1418018 C27.1129741,21.780151 27.7814978,22.4255259 28.4478787,23.0769231 C29.0606921,22.6172314 29.6745768,22.1615545 30.2884615,21.7139072" id="Fill-23" fill="#FFFFFF"></path>
                            <path d="M24.5192308,21.038031 C23.876086,20.4282434 23.2287031,19.8274971 22.5813202,19.2307692 C21.9424136,19.7682262 21.3066857,20.3127153 20.6730769,20.8612227 C21.324698,21.4338404 21.9720809,22.0114811 22.6173448,22.5961538 C23.249894,22.0717566 23.8824433,21.5513777 24.5192308,21.038031" id="Fill-25" fill="#FFFFFF"></path>
                            <path d="M13.8899863,20.1923077 C14.545605,19.5732705 15.204427,18.9622989 15.8653846,18.3553602 C15.5674732,18.1093584 15.2716973,17.8593239 14.9727181,17.6153385 C14.6449088,17.3491727 14.3160317,17.0910725 13.9882224,16.8269231 C13.3294003,17.4580587 12.6727139,18.092219 12.0192308,18.7344449 C12.3139388,18.9622989 12.6107825,19.1830956 12.9054905,19.4129661 C13.2343677,19.6690499 13.5611092,19.9331993 13.8899863,20.1923077" id="Fill-27" fill="#FFFFFF"></path>
                            <path d="M35.0961538,25.1992146 C35.7054211,25.9274322 36.3108444,26.6616435 36.9124237,27.4038462 C37.4294359,27.0332443 37.9454872,26.6726317 38.4615385,26.3140169 C37.8647641,25.548839 37.2651068,24.7906535 36.6606445,24.0384615 C36.1388273,24.4200516 35.617971,24.8056374 35.0961538,25.1992146" id="Fill-29" fill="#FFFFFF"></path>
                            <path d="M11.1278463,19.7115385 C10.4605799,20.3729725 9.79652657,21.0404288 9.13461538,21.7139072 C9.74940021,22.1615545 10.3620429,22.6172314 10.9757567,23.0769231 C11.640881,22.4255259 12.3092186,21.780151 12.9807692,21.1418018 C12.6862295,20.9109523 12.3927607,20.6750843 12.0971499,20.4472459 C11.7747628,20.1983299 11.4513045,19.9574434 11.1278463,19.7115385" id="Fill-31" fill="#FFFFFF"></path>
                            <path d="M37.5,23.1854655 C38.1904838,23.9442683 38.8766249,24.709038 39.559509,25.4807692 C39.8341826,25.3156824 40.1099418,25.1555681 40.3846154,24.9924702 L40.3846154,23.4659143 C39.9970325,23.0154062 39.611621,22.5619147 39.2218668,22.1153846 C38.6475493,22.4664428 38.0743175,22.8224734 37.5,23.1854655" id="Fill-33" fill="#FFFFFF"></path>
                            <path d="M18.75,20.8617096 C18.1163912,20.3130383 17.4806633,19.7683867 16.8428163,19.2307692 C16.1943738,19.8276753 15.5469909,20.428601 14.9038462,21.0385706 C15.5406336,21.5520707 16.1731829,22.0726049 16.8057321,22.5961538 C17.450996,22.0123114 18.0994384,21.4344982 18.75,20.8617096" id="Fill-35" fill="#FFFFFF"></path>
                            <path d="M21.6346154,23.3545889 C20.9964168,22.7762264 20.3550377,22.2018943 19.7115385,21.6346154 C19.0669791,22.2018943 18.4266602,22.7762264 17.7884615,23.3545889 C18.4309007,23.8976854 19.0722797,24.4458199 19.7115385,25 C20.3497371,24.4458199 20.9911161,23.8976854 21.6346154,23.3545889" id="Fill-37" fill="#FFFFFF"></path>
                            <path d="M22.728829,40.3846154 C22.2013382,40.8592302 21.6781271,41.3436197 21.1538462,41.8269231 C22.1446302,41.8095459 23.1054554,41.7628446 24.0384615,41.6922498 C23.6029873,41.2545615 23.1664432,40.8157872 22.728829,40.3846154" id="Fill-39" fill="#FFFFFF"></path>
                            <path d="M18.2692308,0 C17.2883802,0.0491584081 16.3248089,0.168121756 15.3846154,0.35295737 C15.8196455,0.714763253 16.2536591,1.07558597 16.6866564,1.44230769 C17.2121483,0.957605789 17.7406895,0.477819726 18.2692308,0" id="Fill-41" fill="#FFFFFF"></path>
                            <path d="M24.0384615,0.239900944 C23.0966633,0.086093484 22.1338512,0.00193468503 21.1538462,0 C21.6591314,0.476899861 22.1634615,0.956701749 22.6658813,1.44230769 C23.1224529,1.03795852 23.5799796,0.637478718 24.0384615,0.239900944" id="Fill-43" fill="#FFFFFF"></path>
                            <path d="M16.9315992,40.3846154 C16.5749592,40.7978111 16.2210983,41.2187611 15.8653846,41.6374956 C16.6407292,41.7261166 17.4420113,41.7903669 18.2692308,41.8269231 C17.8236624,41.3428306 17.3790203,40.8598458 16.9315992,40.3846154" id="Fill-45" fill="#FFFFFF"></path>
                            <path d="M28.3653846,1.41634615 C28.0489704,1.25384615 27.7300971,1.1 27.4038462,0.961538462 C27.6145157,1.21538462 27.826005,1.46538462 28.0358548,1.72115385 C28.1448784,1.61826923 28.2555413,1.51826923 28.3653846,1.41634615" id="Fill-47" fill="#FFFFFF"></path>
                            <path d="M9.16997606,3.74033959 C9.47700196,3.4108213 9.78708791,3.0874431 10.0961538,2.75997151 C9.94519095,2.64023971 9.79422805,2.52357795 9.64326515,2.40384615 C8.79052878,2.89914694 7.97757317,3.45584864 7.21153846,4.06985788 C7.53794473,4.31546157 7.86639103,4.55799522 8.1927973,4.80769231 C8.51920357,4.4525903 8.84152976,4.09237155 9.16997606,3.74033959" id="Fill-49" fill="#FFFFFF"></path>
                            <path d="M11.2676923,1.92307692 C11.1976923,1.95507692 11.1266923,1.98507692 11.0576923,2.01807692 C11.0796923,2.03607692 11.1016923,2.05307692 11.1236923,2.07007692 C11.1716923,2.02107692 11.2196923,1.97307692 11.2676923,1.92307692" id="Fill-51" fill="#FFFFFF"></path>
                            <path d="M30.2512332,4.1548316 C30.5790172,4.52872297 30.9006934,4.91130949 31.2264414,5.28846154 C31.7140456,4.89174541 32.2036856,4.50263753 32.6923077,4.11570344 C31.8962609,3.48095763 31.0554237,2.90707785 30.174886,2.40384615 C29.8918924,2.64078894 29.6088987,2.87447105 29.3269231,3.11467451 C29.6343478,3.46139354 29.9448264,3.80485189 30.2512332,4.1548316" id="Fill-53" fill="#FFFFFF"></path>
                            <path d="M37.5,17.9097251 C38.1914722,18.664587 38.8785471,19.4254479 39.5601255,20.1923077 C39.8349554,20.0283377 40.1097854,19.8693667 40.3846154,19.7063965 L40.3846154,19.3324649 C40.3846154,18.9105421 40.3637283,18.4936183 40.3329473,18.0786942 C39.9712711,17.6607706 39.6128928,17.2408474 39.2490179,16.8269231 C38.6652791,17.1808584 38.0826395,17.543792 37.5,17.9097251" id="Fill-55" fill="#FFFFFF"></path>
                            <path d="M39.2461464,14.9038462 C39.305432,14.8639273 39.3637913,14.8259093 39.4230769,14.7869408 C39.1924189,13.8326891 38.8913591,12.906951 38.5171187,12.0192308 C38.1780791,12.2530414 37.8390396,12.4859017 37.5,12.725415 C38.0863717,13.445856 38.6690381,14.1710493 39.2461464,14.9038462" id="Fill-57" fill="#FFFFFF"></path>
                            <path d="M34.0076707,8.17307692 C34.5304397,7.76805915 35.0541541,7.37314156 35.5769231,6.979234 C35.1089834,6.38736264 34.636317,5.80155139 34.1636506,5.21675016 C34.022796,5.0783775 33.8800508,4.94202489 33.7344695,4.80769231 C33.2268258,5.20867001 32.7182368,5.61267776 32.2115385,6.02476568 C32.8137154,6.73480931 33.4121111,7.45192308 34.0076707,8.17307692" id="Fill-59" fill="#FFFFFF"></path>
                            <path d="M35.0961538,9.34025077 C35.7477847,10.0669817 36.3952913,10.7997186 37.0386736,11.5384615 C37.5129619,11.2211424 37.9872502,10.9128323 38.4615385,10.6045223 C38.1707791,10.0649796 37.8542433,9.54045211 37.5129619,9.03194069 C37.2696314,8.74665378 37.0293941,8.45736283 36.7850325,8.17307692 C36.222073,8.5564625 35.6591134,8.94485311 35.0961538,9.34025077" id="Fill-61" fill="#FFFFFF"></path>
                            <path d="M37.5,28.4753318 C38.1902512,29.2329682 38.8772206,29.9976012 39.5598145,30.7692308 C39.8354774,30.6043099 40.1100464,30.4463857 40.3846154,30.2864625 L40.3846154,28.7332081 C40.0028441,28.2894211 39.6221668,27.8436351 39.2382078,27.4038462 C38.6595344,27.7566768 38.0797672,28.110507 37.5,28.4753318" id="Fill-63" fill="#FFFFFF"></path>
                            <g id="Group-67" transform="translate(0.000000, 32.211538)">
                                <mask id="mask-4" fill="white">
                                    <use xlink:href="#path-3"></use>
                                </mask>
                                <g id="Clip-66"></g>
                                <path d="M0.851826923,0.919615385 C0.583557692,0.737884615 0.31625,0.563846154 0.0489423077,0.385 C0.0325961538,0.406153846 0.01625,0.426346154 -9.61538462e-05,0.446538462 L-9.61538462e-05,1.34173077 C0.138365385,1.77057692 0.343173077,2.19269231 0.60375,2.60711538 C0.927788462,2.21192308 1.24990385,1.81288462 1.57682692,1.42057692 C1.33451923,1.25519231 1.09317308,1.08307692 0.851826923,0.919615385" id="Fill-65" fill="#FFFFFF" mask="url(#mask-4)"></path>
                            </g>
                            <path d="M2.7144666,34.6153846 C2.28810541,35.1351985 1.86570117,35.663056 1.44230769,36.189908 C1.85284109,36.6433627 2.33262108,37.0817358 2.88461538,37.5 C3.36340614,36.9268976 3.84318613,36.3537952 4.32692308,35.7877309 C3.78877809,35.3925919 3.25162235,34.9994638 2.7144666,34.6153846" id="Fill-68" fill="#FFFFFF"></path>
                            <path d="M8.25012783,38.4615385 C7.90180093,38.8415098 7.55773492,39.2278139 7.21153846,39.6120071 C7.97104022,39.8938191 8.7795421,40.1524107 9.63491365,40.3846154 C9.78937053,40.2231276 9.94169697,40.0574179 10.0961538,39.8969856 C9.48152199,39.4114667 8.86582491,38.9343916 8.25012783,38.4615385" id="Fill-70" fill="#FFFFFF"></path>
                            <path d="M7.21153846,6.09110308 C6.86835573,5.81898802 6.52329255,5.55470361 6.17916959,5.28846154 C5.51348912,5.92959594 4.89387975,6.62260839 4.32692308,7.35966824 C4.69267125,7.62982564 5.05841942,7.89704654 5.42510781,8.17307692 C6.01745061,7.47419149 6.61167385,6.77922137 7.21153846,6.09110308" id="Fill-72" fill="#FFFFFF"></path>
                            <path d="M0.0550032595,27.4038462 C0.0366688396,27.4281573 0.0183344198,27.4543386 0,27.4786498 L0,30.2884615 C0.47844105,29.6573058 0.958628236,29.0280202 1.44230769,28.4062149 C0.979581859,28.0658584 0.516856025,27.7339172 0.0550032595,27.4038462" id="Fill-74" fill="#FFFFFF"></path>
                            <path d="M5.65276535,36.5384615 C5.20833333,37.1386017 4.76762821,37.7475031 4.32692308,38.3564044 C4.85707364,38.7331347 5.43753727,39.0890573 6.06458706,39.4230769 C6.44659362,38.9182145 6.82766846,38.4122569 7.21153846,37.9139653 C6.69256857,37.4485281 6.17266696,36.9896618 5.65276535,36.5384615" id="Fill-76" fill="#FFFFFF"></path>
                            <path d="M0.0989142437,22.1153846 C0.0655594406,22.1543283 0.0333548031,22.1943538 0,22.2343792 L0,25.4807692 C0.638341921,24.7430025 1.27783401,24.0073993 1.92307692,23.2793685 C1.31463931,22.8856044 0.707351859,22.4972492 0.0989142437,22.1153846" id="Fill-78" fill="#FFFFFF"></path>
                            <path d="M1.35096154,12.5 C1.21153846,12.81651 1.07884615,13.136451 0.961538462,13.4615385 C1.19807692,13.2059288 1.43173077,12.9468881 1.67019231,12.6929939 C1.56346154,12.6269471 1.45769231,12.565189 1.35096154,12.5" id="Fill-80" fill="#FFFFFF"></path>
                            <path d="M4.32692308,9.40030364 C3.98756768,9.14726721 3.64726701,8.90104329 3.30791161,8.65384615 C2.78706252,9.43047337 2.32482077,10.2499221 1.92307692,11.1044067 C2.13103845,11.2494161 2.33899997,11.3905325 2.54696149,11.5384615 C3.13587072,10.8202273 3.72950634,10.1078325 4.32692308,9.40030364" id="Fill-82" fill="#FFFFFF"></path>
                            <path d="M0.143438776,16.8269231 C0.051919557,17.5920526 0,18.3706393 0,19.1617217 L0,19.7115385 C0.478715915,19.0684836 0.958311822,18.4273511 1.44230769,17.7929472 C1.00935139,17.4670943 0.576395081,17.144125 0.143438776,16.8269231" id="Fill-84" fill="#FFFFFF"></path>
                            <path d="M15.8653846,23.6473806 C15.2407955,23.13271 14.6140856,22.6200421 13.9841944,22.1153846 C13.3267322,22.7452052 12.6724513,23.3810336 12.0192308,24.0238711 C12.6427594,24.503496 13.2652277,24.9891287 13.8866355,25.4807692 C14.5430373,24.8639656 15.2026203,24.2531698 15.8653846,23.6473806" id="Fill-86" fill="#FFFFFF"></path>
                            <path d="M27.4078693,6.20796868 C27.7511801,6.53846154 28.0901995,6.8770152 28.4324375,7.21153846 C29.0493241,6.74804238 29.6683564,6.28857669 30.2884615,5.83616421 C29.9773361,5.51977775 29.6705021,5.19835329 29.357231,4.88498964 C29.0107016,4.53434477 28.6588081,4.19276831 28.3090602,3.84615385 C27.6857365,4.32174113 27.0634857,4.80438162 26.4423077,5.29206011 C26.7641616,5.59837057 27.0881611,5.89964302 27.4078693,6.20796868" id="Fill-88" fill="#FFFFFF"></path>
                            <path d="M24.5192308,31.6022965 C23.8796171,30.9990766 23.2368265,30.3998715 22.590859,29.8076923 C21.9501864,30.3476795 21.3105727,30.8956962 20.6730769,31.4487313 C21.3179854,32.0178256 21.961835,32.5909346 22.6035666,33.1730769 C23.2410624,32.6441304 23.8796171,32.1191987 24.5192308,31.6022965" id="Fill-90" fill="#FFFFFF"></path>
                            <path d="M16.8028913,6.73076923 C17.4490793,6.14443007 18.0984716,5.56718927 18.75,4.99399219 C18.117697,4.44606835 17.4843259,3.9011773 16.8488187,3.36538462 C16.1983584,3.96385493 15.5500342,4.56535804 14.9038462,5.17595952 C15.5382853,5.68748989 16.1716564,6.2071077 16.8028913,6.73076923" id="Fill-92" fill="#FFFFFF"></path>
                            <path d="M27.4038462,2.85809814 C26.7539273,2.21952246 26.0997396,1.58800844 25.4434176,0.961538462 C24.8127081,1.46796025 24.1852002,1.9824525 23.5576923,2.50097999 C24.2161487,3.10424737 24.8724708,3.71154999 25.524524,4.32692308 C26.1498975,3.83260699 26.7763383,3.34131733 27.4038462,2.85809814" id="Fill-94" fill="#FFFFFF"></path>
                            <path d="M22.6196581,6.73076923 C23.2510684,6.2071077 23.8846154,5.68748989 24.5192308,5.17595952 C23.8728632,4.56535804 23.224359,3.96385493 22.5726496,3.36538462 C21.9380342,3.9011773 21.3044872,4.44606835 20.6730769,4.99399219 C21.3237179,5.56718927 21.9732906,6.14443007 22.6196581,6.73076923" id="Fill-96" fill="#FFFFFF"></path>
                            <path d="M10.5769231,8.07074623 C9.96766318,7.61844173 9.35840329,7.17111855 8.74807264,6.73076923 C8.07135515,7.42416997 7.39892068,8.12454456 6.73076923,8.82890422 C7.33681686,9.24534317 7.94286449,9.66775971 8.54784136,10.0961538 C9.22027583,9.41570456 9.89592256,8.73924033 10.5769231,8.07074623" id="Fill-98" fill="#FFFFFF"></path>
                            <path d="M12.0149382,6.20796868 C12.3347356,5.89964302 12.6588255,5.59736297 12.9807692,5.29206011 C12.3594179,4.80438162 11.7380666,4.32174113 11.114569,3.84615385 C10.7647236,4.19276831 10.4127318,4.53535237 10.0650326,4.88498964 C9.75274725,5.19835329 9.44582761,5.51977775 9.13461538,5.83616421 C9.75489354,6.28857669 10.3730254,6.74804238 10.9911573,7.21153846 C11.3324176,6.8770152 11.6715316,6.53846154 12.0149382,6.20796868" id="Fill-100" fill="#FFFFFF"></path>
                            <path d="M15.8653846,2.50097999 C15.2389439,1.9824525 14.6103688,1.46796025 13.9796594,0.961538462 C13.3233373,1.58901725 12.6691497,2.21952246 12.0192308,2.85809814 C12.6467387,3.34131733 13.2731794,3.83159818 13.8985529,4.32692308 C14.5506062,3.71154999 15.2069282,3.10424737 15.8653846,2.50097999" id="Fill-102" fill="#FFFFFF"></path>
                            <path d="M27.4038462,34.5828944 C26.7580565,33.9476893 26.1101495,33.31549 25.4580078,32.6923077 C24.8238635,33.2032771 24.1907779,33.7212598 23.5576923,34.2452539 C24.209834,34.8433886 24.8598583,35.4465329 25.5067067,36.0576923 C26.1376749,35.5597476 26.7697019,35.0698182 27.4038462,34.5828944" id="Fill-104" fill="#FFFFFF"></path>
                            <path d="M31.3560048,10.0961538 C31.9609817,9.66788649 32.5670293,9.24559496 33.1730769,8.82927926 C32.5038547,8.12413208 31.8335618,7.42396476 31.1557735,6.73076923 C30.5443721,7.17098823 29.9351122,7.61917499 29.3269231,8.07134564 C30.0079236,8.73964191 30.6824996,9.41590593 31.3560048,10.0961538" id="Fill-106" fill="#FFFFFF"></path>
                            <path d="M32.6923077,29.976069 C32.1089114,29.2718961 31.5217391,28.575748 30.9317348,27.8846154 C30.3964829,28.3269804 29.861231,28.7773702 29.3269231,29.2317723 C29.9197594,29.8978276 30.5097637,30.5719076 31.096936,31.25 C31.6274679,30.8216783 32.1589438,30.3943597 32.6923077,29.976069" id="Fill-108" fill="#FFFFFF"></path>
                            <path d="M7.21153846,11.3536605 C6.68011191,10.9284748 6.14963603,10.5103087 5.61820947,10.0961538 C5.02308779,10.8161616 4.43271947,11.5441918 3.84615385,12.2752304 C4.37187636,12.6653181 4.8966482,13.0604199 5.42237071,13.4615385 C6.01464037,12.7535642 6.61166341,12.050604 7.21153846,11.3536605" id="Fill-110" fill="#FFFFFF"></path>
                            <path d="M34.8507386,28.6802727 C35.0924828,28.4980895 35.3342271,28.3239143 35.5769231,28.1457351 C34.9868387,27.4109962 34.3919955,26.6832643 33.7952489,25.9615385 C33.2670282,26.3729522 32.7388074,26.791373 32.2115385,27.2147989 C32.8120921,27.9125006 33.4107423,28.6162083 34.0055854,29.3269231 C34.2873031,29.1117066 34.5680691,28.8914852 34.8507386,28.6802727" id="Fill-112" fill="#FFFFFF"></path>
                            <path d="M30.2884615,32.2847396 C29.6306514,31.6142801 28.9706985,30.9468407 28.3053889,30.2884615 C27.6840047,30.763622 27.0626205,31.2428093 26.4423077,31.7310569 C27.10976,32.3652753 27.7718556,33.0075473 28.4328798,33.6538462 C29.0499786,33.1917727 29.6681487,32.7357394 30.2884615,32.2847396" id="Fill-114" fill="#FFFFFF"></path>
                            <path d="M35.0961538,19.9170285 C35.7026776,20.6427775 36.305332,21.3765681 36.9060517,22.1153846 C37.4245473,21.7424582 37.9430429,21.3805889 38.4615385,21.0197247 C37.8666228,20.2567836 37.2688051,19.4998736 36.6671181,18.75 C36.1428184,19.1329784 35.6194861,19.5219879 35.0961538,19.9170285" id="Fill-116" fill="#FFFFFF"></path>
                            <path d="M34.0002009,13.4615385 C34.525775,13.0595369 35.0503986,12.6645528 35.5769231,12.2755837 C34.9895727,11.5437605 34.3993711,10.8169497 33.8053679,10.0961538 C33.2740914,10.5101854 32.7428149,10.9282269 32.2115385,11.3532859 C32.8112441,12.0510243 33.4080985,12.7537751 34.0002009,13.4615385" id="Fill-118" fill="#FFFFFF"></path>
                            <path d="M36.9096154,16.8269231 C37.4269231,16.45477 37.9442308,16.0856181 38.4615385,15.7244695 C37.8682692,14.9641567 37.2711538,14.2108467 36.6701923,13.4615385 C36.1451923,13.8456965 35.6201923,14.2338562 35.0961538,14.6280184 C35.7048077,15.356318 36.3096154,16.0876189 36.9096154,16.8269231" id="Fill-120" fill="#FFFFFF"></path>
                            <path d="M21.6346154,2.20083226 C20.9957265,1.62310116 20.3557692,1.04739011 19.7115385,0.480769231 C19.0683761,1.04739011 18.4284188,1.62310116 17.7884615,2.20083226 C18.4326923,2.74321267 19.0726496,3.2916532 19.7115385,3.84615385 C20.3514957,3.2916532 20.991453,2.74321267 21.6346154,2.20083226" id="Fill-122" fill="#FFFFFF"></path>
                            <path d="M26.4423077,37.0237892 C27.1071534,37.6559829 27.7677645,38.2961538 28.4262582,38.9423077 C29.0466398,38.4746439 29.6670213,38.0169516 30.2884615,37.5622507 C29.6342025,36.8931624 28.9767675,36.2330484 28.3161564,35.5769231 C27.6894228,36.0545584 27.0648066,36.5351852 26.4423077,37.0237892" id="Fill-124" fill="#FFFFFF"></path>
                            <path d="M23.5576923,39.5037313 C24.2203455,40.1105052 24.8808713,40.7263203 25.5382063,41.3461538 C26.1593771,40.8549082 26.780548,40.36969 27.4038462,39.8904994 C26.7486385,39.2475603 26.0913036,38.6106487 25.4318414,37.9807692 C24.8053523,38.4830654 24.1799268,38.9903846 23.5576923,39.5037313" id="Fill-126" fill="#FFFFFF"></path>
                            <path d="M22.5748219,35.0961538 C21.9391292,35.6322686 21.3045032,36.1744526 20.6730769,36.7237174 C21.3226354,37.297259 21.9711272,37.8758584 22.6174858,38.4615385 C23.2499787,37.9375621 23.8835381,37.4186435 24.5192308,36.9068056 C23.8739387,36.2968486 23.2254469,35.6939724 22.5748219,35.0961538" id="Fill-128" fill="#FFFFFF"></path>
                            <path d="M16.848255,35.0961538 C16.19763,35.6929609 15.5491382,36.2958371 14.9038462,36.9057941 C15.5395388,37.4186435 16.1730983,37.9375621 16.8045245,38.4615385 C17.4519497,37.8748468 18.1004416,37.2962475 18.75,36.7227058 C18.1175071,36.1744526 17.4839477,35.6322686 16.848255,35.0961538" id="Fill-130" fill="#FFFFFF"></path>
                            <path d="M17.7884615,39.216722 C18.4321648,39.7591655 19.0726549,40.3107514 19.712074,40.8653846 C20.351493,40.3107514 20.9919832,39.7591655 21.6346154,39.216722 C20.9962674,38.6377093 20.3547062,38.066823 19.712074,37.5 C19.0694418,38.066823 18.4278806,38.6377093 17.7884615,39.216722" id="Fill-132" fill="#FFFFFF"></path>
                            <path d="M29.3269231,34.5202339 C30.0043279,35.1872922 30.6785069,35.8583629 31.348385,36.5384615 C31.9558988,36.1061275 32.5644879,35.6818182 33.1730769,35.2605182 C32.5085751,34.5583515 31.838697,33.8632065 31.1666685,33.1730769 C30.5516279,33.616445 29.9387379,34.0658317 29.3269231,34.5202339" id="Fill-134" fill="#FFFFFF"></path>
                            <path d="M35.8449808,29.9237006 C35.5944081,30.1089419 35.3457628,30.3021937 35.0961538,30.4894377 C35.7042746,31.2173861 36.3085404,31.9513423 36.909915,32.6923077 C37.1903637,32.4920468 37.4708124,32.285778 37.7502974,32.0875197 C37.9873777,31.9213032 38.2234944,31.7620958 38.4615385,31.5968805 C37.8659463,30.8338864 37.2684267,30.0769002 36.6660884,29.3269231 C36.3923859,29.5261827 36.1186834,29.7204358 35.8449808,29.9237006" id="Fill-136" fill="#FFFFFF"></path>
                            <path d="M32.2115385,32.5048722 C32.8131129,33.2030265 33.4118272,33.9051932 34.0076814,34.6153846 C34.5301264,34.2161527 35.0535247,33.8179239 35.5769231,33.4307291 C34.9877424,32.6964634 34.396655,31.9702224 33.8008008,31.25 C33.2697756,31.6622722 32.740657,32.0825691 32.2115385,32.5048722" id="Fill-138" fill="#FFFFFF"></path>
                            <path d="M4.32692308,14.6283652 C3.80177303,14.2330852 3.2775848,13.84481 2.75243476,13.4615385 C2.15130147,14.2110696 1.55401543,14.9646035 0.961538462,15.7251424 C1.47803219,16.0853977 1.99548772,16.45566 2.51294326,16.8269231 C3.11311474,16.0883998 3.71905709,15.3558807 4.32692308,14.6283652" id="Fill-140" fill="#FFFFFF"></path>
                            <path d="M4.32692308,25.1995592 C3.80510587,24.8058652 3.28424966,24.4201649 2.76243246,24.0384615 C2.15893116,24.7908768 1.55831283,25.5492874 0.961538462,26.3146926 C1.47758973,26.6734138 1.993641,27.0331342 2.51065325,27.4038462 C3.11223257,26.6624223 3.71861683,25.9279931 4.32692308,25.1995592" id="Fill-142" fill="#FFFFFF"></path>
                            <path d="M12.0192308,39.8904994 C12.6425289,40.36969 13.2636998,40.8549082 13.883807,41.3461538 C14.5422056,40.7253157 15.2027314,40.1105052 15.8653846,39.5037313 C15.2420865,38.9903846 14.6187883,38.4820608 13.9922992,37.9807692 C13.3317733,38.6106487 12.6744384,39.2475603 12.0192308,39.8904994" id="Fill-144" fill="#FFFFFF"></path>
                            <path d="M3.57809609,29.9245241 C3.30439356,29.7213197 3.03069103,29.5271244 2.7569885,29.3269231 C2.15465019,30.0776781 1.55713058,30.8344392 0.961538462,31.5972063 C1.19861882,31.7623724 1.43569918,31.9215325 1.67277954,32.0876996 C1.95322826,32.285899 2.23271323,32.4921063 2.51219821,32.6923077 C3.11357278,31.9515627 3.71783858,31.2168238 4.32692308,30.4900929 C4.07731408,30.3019036 3.82866883,30.1097103 3.57809609,29.9245241" id="Fill-146" fill="#FFFFFF"></path>
                            <path d="M4.32692308,19.917685 C3.80359078,19.5227622 3.27929113,19.1338689 2.75595883,18.75 C2.15427178,19.4996497 1.55645411,20.2573386 0.961538462,21.0200519 C1.48003405,21.3808083 1.99852964,21.7425695 2.51702523,22.1153846 C3.11677759,21.3767887 3.71943198,20.6432173 4.32692308,19.917685" id="Fill-148" fill="#FFFFFF"></path>
                            <path d="M11.1069205,35.5769231 C10.4463095,36.2340456 9.78781575,36.8941595 9.13461538,37.5632479 C9.7560556,38.0169516 10.3764371,38.475641 10.9968187,38.9423077 C11.6553124,38.297151 12.3169822,37.6569801 12.9807692,37.0237892 C12.3582703,36.5351852 11.7325954,36.0545584 11.1069205,35.5769231" id="Fill-150" fill="#FFFFFF"></path>
                            <path d="M5.62132273,31.25 C5.02642188,31.9702224 4.43438113,32.6974665 3.84615385,33.4307291 C4.36955219,33.818927 4.89199717,34.2161527 5.41539551,34.6153846 C6.01029636,33.9051932 6.60996404,33.2030265 7.21153846,32.5048722 C6.68241992,32.0825691 6.15234801,31.6622722 5.62132273,31.25" id="Fill-152" fill="#FFFFFF"></path>
                            <path d="M8.25748371,33.1730769 C7.58437991,33.8632065 6.91450184,34.5583515 6.25,35.2615213 C6.85858906,35.6818182 7.46717813,36.1071306 8.07469194,36.5384615 C8.74457001,35.859366 9.4198243,35.1872922 10.0961538,34.5202339 C9.48541429,34.0658317 8.87252425,33.616445 8.25748371,33.1730769" id="Fill-154" fill="#FFFFFF"></path>
                            <path d="M21.6346154,33.9316689 C20.9950111,33.3528956 20.3543408,32.7771578 19.7115385,32.2115385 C19.0687361,32.7781697 18.4280658,33.3528956 17.7884615,33.9316689 C18.4312639,34.4750278 19.0719342,35.0214221 19.7115385,35.5769231 C20.3500768,35.0214221 20.9918131,34.4740159 21.6346154,33.9316689" id="Fill-156" fill="#FFFFFF"></path>
                            <path d="M24.5192308,26.338141 C23.8717017,25.7251603 23.2188996,25.1201923 22.5650429,24.5192308 C21.9322784,25.0530849 21.301623,25.5929487 20.6730769,26.1368189 C21.3290428,26.713742 21.9828995,27.2956731 22.6325378,27.8846154 C23.2600293,27.3627804 23.88963,26.8479567 24.5192308,26.338141" id="Fill-158" fill="#FFFFFF"></path>
                            <path d="M15.8653846,28.9407219 C15.2377026,28.422039 14.608953,27.9104198 13.9780685,27.4038462 C13.3226318,28.030504 12.66933,28.6642256 12.0192308,29.3019836 C12.6469128,29.7853477 13.2735274,30.2737574 13.8990745,30.7692308 C14.5513087,30.1536732 15.2067454,29.5441702 15.8653846,28.9407219" id="Fill-160" fill="#FFFFFF"></path>
                            <path d="M27.4038462,29.302553 C26.7537469,28.6635942 26.1004451,28.0306919 25.4450084,27.4038462 C24.8141239,27.9105717 24.1853744,28.4223444 23.5576923,28.9411829 C24.2163315,29.5448122 24.8707007,30.1544979 25.5240024,30.7692308 C26.1495495,30.2736087 26.7761641,29.7850526 27.4038462,29.302553" id="Fill-162" fill="#FFFFFF"></path>
                            <path d="M18.75,26.1368189 C18.1223364,25.5929487 17.4915081,25.0530849 16.85857,24.5192308 C16.2045339,25.1211939 15.5515528,25.7251603 14.9038462,26.338141 C15.5346745,26.8479567 16.163393,27.3627804 16.7910566,27.8846154 C17.440873,27.2956731 18.0949091,26.7147436 18.75,26.1368189" id="Fill-164" fill="#FFFFFF"></path>
                            <path d="M21.6346154,28.637612 C20.9969057,28.0594664 20.3550074,27.4892815 19.712062,26.9230769 C19.0680695,27.4892815 18.4261712,28.0594664 17.7884615,28.637612 C18.4314069,29.1809296 19.0722581,29.7322078 19.712062,30.2884615 C20.3508189,29.7322078 20.99167,29.1809296 21.6346154,28.637612" id="Fill-166" fill="#FFFFFF"></path>
                            <path d="M35.5769231,22.8512118 C34.9892251,22.1191249 34.3976984,21.3920729 33.8033003,20.6730769 C33.2720749,21.0869528 32.7418067,21.5028426 32.2115385,21.9288024 C32.8107224,22.6246375 33.4060777,23.3295355 33.9995187,24.0384615 C34.5250011,23.6356627 35.0504835,23.2409198 35.5769231,22.8512118" id="Fill-168" fill="#FFFFFF"></path>
                            <path d="M32.6923077,24.6821277 C32.1094174,23.981426 31.5255777,23.2847571 30.9379408,22.5961538 C30.4006184,23.0397636 29.8632961,23.4904307 29.3269231,23.9461389 C29.9183574,24.6115534 30.5069437,25.2840254 31.0936313,25.9615385 C31.626207,25.5310354 32.1587827,25.1015405 32.6923077,24.6821277" id="Fill-170" fill="#FFFFFF"></path>
                            <path d="M30.2884615,26.9916555 C29.6316964,26.3224029 28.9738582,25.6571759 28.3117273,25 C27.6882297,25.4770312 27.0647321,25.9631199 26.4423077,26.4512215 C27.1087311,27.0832375 27.770862,27.7212919 28.4308465,28.3653846 C29.0500515,27.9014366 29.6692565,27.4435269 30.2884615,26.9916555" id="Fill-172" fill="#FFFFFF"></path>
                            <path d="M12.9807692,26.4502151 C12.3583448,25.9621135 11.7348472,25.4760248 11.1113496,25 C10.4492187,25.6571759 9.79138049,26.3213965 9.13461538,26.9916555 C9.7538204,27.4435269 10.3730254,27.9004302 10.9922304,28.3653846 C11.652215,27.7212919 12.3143458,27.0822311 12.9807692,26.4502151" id="Fill-174" fill="#FFFFFF"></path>
                            <path d="M14.9038462,15.7680263 C15.203133,16.0089128 15.5045424,16.2447808 15.8027679,16.4886783 C16.1338937,16.7586719 16.4607743,17.0356913 16.7897776,17.3076923 C17.4414162,16.7175205 18.0941161,16.1313634 18.75,15.5542396 C18.12171,15.0102377 17.4923586,14.4732616 16.8608847,13.9423077 C16.2060621,14.5435202 15.5544235,15.1537659 14.9038462,15.7680263" id="Fill-176" fill="#FFFFFF"></path>
                            <path d="M17.7884615,12.7757991 C18.4314453,13.3191579 19.072293,13.8685878 19.7120725,14.4230769 C20.350784,13.8685878 20.9916316,13.3191579 21.6346154,12.7757991 C20.9959039,12.1970258 20.3550563,11.6243235 19.7120725,11.0576923 C19.0690887,11.6243235 18.4282411,12.1970258 17.7884615,12.7757991" id="Fill-178" fill="#FFFFFF"></path>
                            <path d="M33.7978861,15.3846154 C33.2684676,15.7960071 32.7400031,16.2154259 32.2115385,16.6378549 C32.8125,17.335214 33.4096459,18.0395968 34.004884,18.75 C34.5285791,18.3486423 35.053228,17.9563151 35.5769231,17.5669981 C34.9874084,16.8335168 34.3940781,16.1060559 33.7978861,15.3846154" id="Fill-180" fill="#FFFFFF"></path>
                            <path d="M20.6730769,15.5542396 C21.3289608,16.1313634 21.9816607,16.7175205 22.6332994,17.3076923 C22.9623026,17.0356913 23.2891832,16.7586719 23.6192478,16.4886783 C23.9185346,16.2457845 24.219944,16.0089128 24.5192308,15.7680263 C23.8686534,15.1537659 23.2170148,14.5435202 22.5611309,13.9423077 C21.929657,14.4732616 21.301367,15.0112414 20.6730769,15.5542396" id="Fill-182" fill="#FFFFFF"></path>
                            <path d="M12.0192308,13.4583859 C12.6411213,13.9348561 13.2630119,14.4153388 13.8827763,14.9038462 C14.541874,14.2829302 15.2020347,13.6650235 15.8653846,13.0571478 C15.2434941,12.543563 14.6205405,12.0390061 13.9975869,11.5384615 C13.3353,12.1714147 12.6762023,12.8133956 12.0192308,13.4583859" id="Fill-184" fill="#FFFFFF"></path>
                            <path d="M8.32944559,25.9615385 C8.9151839,25.2830172 9.50471954,24.6105452 10.0961538,23.9461389 C9.55978084,23.4904307 9.0224585,23.0397636 8.48513616,22.5961538 C7.89749919,23.2847571 7.31271021,23.981426 6.73076923,24.6821277 C7.26429424,25.1015405 7.79686991,25.5300272 8.32944559,25.9615385" id="Fill-186" fill="#FFFFFF"></path>
                            <path d="M9.13461538,16.4243617 C9.75098619,16.8740206 10.367357,17.3267042 10.9826559,17.7884615 C11.6461924,17.13817 12.3118729,16.4949359 12.9807692,15.8577511 C12.3622545,15.3717968 11.7426679,14.8959246 11.1230812,14.4230769 C10.4574007,15.0844587 9.79386416,15.7498733 9.13461538,16.4243617" id="Fill-188" fill="#FFFFFF"></path>
                            <path d="M6.73076923,19.4017763 C7.26100364,19.8201917 7.79123806,20.2436241 8.32052899,20.6730769 C8.9102025,19.9907688 9.50176296,19.3154844 10.0961538,18.6462204 C9.56214552,18.1926861 9.02719372,17.7491858 8.49129844,17.3076923 C7.90162494,18.0000344 7.31478187,18.6973935 6.73076923,19.4017763" id="Fill-190" fill="#FFFFFF"></path>
                            <path d="M17.7884615,7.48735884 C18.4314421,8.03104462 19.07229,8.5787802 19.7120716,9.13461538 C20.3507869,8.5787802 20.9916349,8.03104462 21.6346154,7.48735884 C20.9959001,6.90722484 20.3539858,6.33620291 19.7120716,5.76923077 C19.0690911,6.33620291 18.4271769,6.90722484 17.7884615,7.48735884" id="Fill-192" fill="#FFFFFF"></path>
                            <path d="M4.57233837,28.6802727 C4.85500783,28.8924862 5.1357738,29.1117066 5.41749152,29.3269231 C6.01233467,28.6152073 6.61003307,27.9125006 7.21153846,27.2147989 C6.68331774,26.791373 6.15509702,26.3729522 5.62687631,25.9615385 C5.03012966,26.6832643 4.43623825,27.4109962 3.84615385,28.1447341 C4.0878981,28.3249153 4.33059411,28.4980895 4.57233837,28.6802727" id="Fill-194" fill="#FFFFFF"></path>
                            <path d="M10.0961538,29.2313709 C9.56090193,28.7771042 9.02659402,28.3268486 8.4903981,27.8846154 C7.90133779,28.5755421 7.3141655,29.2714828 6.73076923,29.9754458 C7.26413313,30.3936119 7.79466501,30.8208032 8.3261409,31.25 C8.91331319,30.5711069 9.5023735,29.8972277 10.0961538,29.2313709" id="Fill-196" fill="#FFFFFF"></path>
                            <path d="M5.42310973,24.0384615 C6.01638197,23.3297476 6.61156799,22.6250604 7.21153846,21.9294335 C6.68046412,21.5036011 6.15034667,21.086829 5.61927233,20.6730769 C5.0250432,21.3928645 4.43464163,22.119699 3.84615385,22.851567 C4.37148684,23.2411583 4.89777673,23.6357832 5.42310973,24.0384615" id="Fill-198" fill="#FFFFFF"></path>
                            <path d="M3.84615385,17.5676489 C4.37080281,17.9570821 4.89449786,18.3495263 5.41819292,18.75 C6.01343101,18.0393849 6.61153083,17.3357957 7.21153846,16.6382287 C6.68307387,16.21467 6.15460928,15.7961298 5.62519078,15.3846154 C5.02899878,16.1062711 4.4356685,16.8339489 3.84615385,17.5676489" id="Fill-200" fill="#FFFFFF"></path>
                            <path d="M6.73076923,14.1088881 C7.26234488,14.5274232 7.79392053,14.9540071 8.32549617,15.3846154 C8.91287781,14.7044958 9.50404289,14.0314189 10.0961538,13.3643785 C9.56174061,12.9106301 9.0263815,12.4609061 8.49007653,12.0192308 C7.90080317,12.7104174 7.31342154,13.4056284 6.73076923,14.1088881" id="Fill-202" fill="#FFFFFF"></path>
                            <path d="M12.9807692,31.7310569 C12.3602836,31.243816 11.7387262,30.763622 11.1171689,30.2884615 C10.4527456,30.9468407 9.79153718,31.6142801 9.13461538,32.2847396 C9.75402941,32.7357394 10.3734434,33.1917727 10.9907141,33.6538462 C11.6508509,33.0075473 12.3142026,32.3652753 12.9807692,31.7310569" id="Fill-204" fill="#FFFFFF"></path>
                            <path d="M18.75,31.4487313 C18.111621,30.8956962 17.4721834,30.3486832 16.8316871,29.8076923 C16.1858974,30.4008752 15.5432838,30.9990766 14.9038462,31.6022965 C15.5432838,32.1191987 16.1816627,32.6441304 16.818983,33.1730769 C17.460538,32.5919383 18.1042103,32.0178256 18.75,31.4487313" id="Fill-206" fill="#FFFFFF"></path>
                            <path d="M29.3269231,13.3643785 C29.9198133,14.0314189 30.5108122,14.7034897 31.0980288,15.3846154 C31.6294551,14.9540071 32.1608814,14.5274232 32.6923077,14.1088881 C32.1088735,13.4056284 31.5226025,12.7104174 30.9334947,12.0192308 C30.3973404,12.4609061 29.8621318,12.9106301 29.3269231,13.3643785" id="Fill-208" fill="#FFFFFF"></path>
                            <path d="M15.8653846,34.2452539 C15.2333577,33.7212598 14.6002721,33.2032771 13.9650691,32.6923077 C13.3129274,33.31549 12.6660791,33.9476893 12.0192308,34.5828944 C12.653375,35.0698182 13.2864606,35.5597476 13.9163702,36.0576923 C14.5642772,35.4475348 15.2143016,34.8433886 15.8653846,34.2452539" id="Fill-210" fill="#FFFFFF"></path>
                            <path d="M23.5576923,7.78413028 C24.2169411,8.38747401 24.872974,8.99890275 25.527935,9.61538462 C26.1518095,9.12219912 26.7767559,8.63507739 27.4038462,8.1540194 C26.752101,7.51328251 26.0960681,6.87860938 25.4389632,6.25 C24.809729,6.75430238 24.1837107,7.26770039 23.5576923,7.78413028" id="Fill-212" fill="#FFFFFF"></path>
                            <path d="M26.4423077,10.5609308 C27.1150109,11.1996242 27.7855785,11.8473133 28.4529428,12.5 C29.0637146,12.0432193 29.6755542,11.5904366 30.2884615,11.1446506 C29.6243006,10.4689749 28.9569363,9.7972973 28.2863687,9.13461538 C27.670258,9.60239085 27.0562828,10.0801615 26.4423077,10.5609308" id="Fill-214" fill="#FFFFFF"></path>
                            <path d="M20.6730769,10.2778517 C21.3235373,10.8515658 21.9729295,11.4323627 22.6191176,12.0192308 C23.2514205,11.4940851 23.8847916,10.9780459 24.5192308,10.4660542 C23.8741108,9.85490194 23.2268547,9.2508326 22.5763944,8.65384615 C21.9408871,9.19012211 21.3053799,9.7294336 20.6730769,10.2778517" id="Fill-216" fill="#FFFFFF"></path>
                            <path d="M14.9038462,10.4660542 C15.5382853,10.9780459 16.1727245,11.4940851 16.8039594,12.0192308 C17.4501474,11.4323627 18.0995397,10.8525776 18.75,10.2778517 C18.117697,9.7294336 17.4821898,9.19012211 16.8466825,8.65384615 C16.1962222,9.25184444 15.5489661,9.85591378 14.9038462,10.4660542" id="Fill-218" fill="#FFFFFF"></path>
                            <path d="M12.0192308,8.1540194 C12.6463211,8.63507739 13.2712675,9.12219912 13.8962139,9.61538462 C14.5501029,8.99890275 15.2072078,8.38848464 15.8653846,7.78413028 C15.2404382,7.26770039 14.6133479,6.75430238 13.9851857,6.25 C13.3270088,6.87860938 12.6720479,7.51328251 12.0192308,8.1540194" id="Fill-220" fill="#FFFFFF"></path>
                            <path d="M23.5576923,13.0566952 C24.2210422,13.6653926 24.882266,14.2831152 25.5403006,14.9038462 C26.1600651,14.4154843 26.7819556,13.9351449 27.4038462,13.4588166 C26.7468746,12.8130157 26.0877769,12.171226 25.4265531,11.5384615 C24.8025365,12.0398597 24.1785198,12.5442663 23.5576923,13.0566952" id="Fill-222" fill="#FFFFFF"></path>
                            <path d="M9.13461538,11.1456501 C9.74752274,11.5904366 10.3582945,12.0432193 10.9701341,12.5 C11.6374984,11.8483128 12.3069982,11.1996242 12.9807692,10.5619303 C12.3667941,10.0801615 11.7517512,9.60339037 11.1367082,9.13461538 C10.4661406,9.79829682 9.79877632,10.4699744 9.13461538,11.1456501" id="Fill-224" fill="#FFFFFF"></path>
                            <g id="Group-228" transform="translate(0.480769, 54.326923)">
                                <mask id="mask-6" fill="white">
                                    <use xlink:href="#path-5"></use>
                                </mask>
                                <g id="Clip-227"></g>
                                <path d="M34.5925625,10.4230311 C37.1539567,7.6639652 38.6370817,4.08695055 38.9813606,0.118086081 C36.9096298,3.66488095 29.3556875,6.37559524 20.067226,6.37559524 C10.871649,6.37559524 3.96083173,4.02751832 0.275735577,0.118086081 C1.13289904,9.08228022 8.25472596,16.080174 19.8461202,16.080174 C22.5014087,16.080174 24.8911683,15.7215659 27.0133798,15.0657967 L38.3200625,20.6735806 L34.5925625,10.4230311 Z" id="Fill-226" fill="#FFFFFF" mask="url(#mask-6)"></path>
                            </g>
                        </g>
                    </g>
                </g>
            </g>
        </g>
    </g>
</svg>